<?xml version="1.0" encoding="UTF-8"?>
<svg width="16px" height="16px" viewBox="0 0 16 16" version="1.1" xmlns="http://www.w3.org/2000/svg" xmlns:xlink="http://www.w3.org/1999/xlink">
    <!-- Generator: Sketch 49 (51002) - http://www.bohemiancoding.com/sketch -->
    <title>icon-search</title>
    <desc>Created with Sketch.</desc>
    <defs></defs>
    <g id="Page-1" stroke="none" stroke-width="1" fill="none" fill-rule="evenodd">
        <g id="Dashboard---#1" transform="translate(-356.000000, -31.000000)" fill="#999999">
            <g id="Top" transform="translate(290.000000, 19.000000)">
                <g id="Header">
                    <g id="Search" transform="translate(66.000000, 12.000000)">
                        <path d="M15.8606222,15.8611223 C15.6748268,16.0471677 15.3735033,16.0471677 15.1874579,15.8611223 L10.7296195,11.403284 C9.59034138,12.3870242 8.12448351,13.0029245 6.50133723,13.0029245 C2.91096068,13.0029245 -1.13686838e-13,10.0922139 -1.13686838e-13,6.50133723 C-1.13686838e-13,2.9102105 2.91096068,-2.27373675e-13 6.50133723,-2.27373675e-13 C10.0919638,-2.27373675e-13 13.0029245,2.9102105 13.0029245,6.50133723 C13.0029245,8.12473357 12.3867741,9.59034138 11.403284,10.7298696 L15.8608723,15.1874579 C16.0464176,15.3735033 16.0464176,15.6748268 15.8606222,15.8611223 L15.8606222,15.8611223 Z M12.0024303,6.50133723 C12.0024303,3.4635956 9.53932893,0.999994138 6.50108717,0.999994138 C3.46309548,0.999994138 0.999994138,3.4635956 0.999994138,6.50133723 C0.999994138,9.53982905 3.46309548,12.0031805 6.50108717,12.0031805 C9.53932893,12.0031805 12.0024303,9.54007911 12.0024303,6.50133723 L12.0024303,6.50133723 Z" id="icon-search"></path>
                    </g>
                </g>
            </g>
        </g>
    </g>
</svg>